<svg version="1.1" id="Layer_1" xmlns="http://www.w3.org/2000/svg" x="0" y="0" viewBox="0 0 256 256" style="enable-background:new 0 0 256 256" xml:space="preserve">
  <style>
    .st1 {
      fill: #291b4a
    }

    .st2 {
      fill: #ed9abc
    }

    .st3 {
      fill: #e54890
    }

    .st4 {
      fill: #d3d3d3
    }

    .st5 {
      fill: #ebe7f2
    }

    .st6 {
      fill: #f9b087
    }

    .st7 {
      fill: #ff8639
    }
  </style>
  <circle cx="128" cy="128" r="119.4" style="fill:#382b73" />
  <path class="st1" d="M58.932 114.171a2.5 2.5 0 0 0-2.5 2.5v89.84a2.5 2.5 0 0 0 2.5 2.5h138.137a2.5 2.5 0 0 0 2.5-2.5v-61.248a2.5 2.5 0 0 0-2.5-2.5h-20.833a2.5 2.5 0 0 0-2.5 2.5v58.748h-8.546v-58.748a2.5 2.5 0 0 0-2.5-2.5h-20.833a2.5 2.5 0 0 0-2.5 2.5v58.748h-8.546V192.92a2.5 2.5 0 0 0-2.5-2.5h-20.833a2.5 2.5 0 0 0-2.5 2.5v11.091H96.43v-33.189a2.5 2.5 0 0 0-2.5-2.5H73.097a2.5 2.5 0 0 0-2.5 2.5v33.189h-9.165v-87.34a2.5 2.5 0 0 0-2.5-2.5zm119.803 33.592h15.833v56.248h-15.833v-56.248zm-34.38 0h15.833v56.248h-15.833v-56.248zm-34.379 47.657h15.833v8.591h-15.833v-8.591zm-34.379-22.099H91.43v30.689H75.597v-30.689z" />
  <path class="st1" d="M186.652 134.38c6.012 0 10.904-4.892 10.904-10.904s-4.892-10.903-10.904-10.903c-2.879 0-5.494 1.13-7.445 2.959l-16.762-11.13a10.84 10.84 0 0 0 .651-3.674c0-6.013-4.892-10.904-10.904-10.904s-10.904 4.892-10.904 10.904c0 3.411 1.577 6.458 4.037 8.459l-25.03 51.317a10.87 10.87 0 0 0-2.402-.275c-2.412 0-4.635.797-6.443 2.127l-18.246-15.553a10.829 10.829 0 0 0 1.213-4.976c0-6.012-4.892-10.903-10.904-10.903s-10.904 4.892-10.904 10.903c0 6.013 4.892 10.904 10.904 10.904 2.412 0 4.635-.797 6.443-2.127l18.246 15.553a10.829 10.829 0 0 0-1.213 4.976c0 6.012 4.892 10.903 10.904 10.903s10.904-4.892 10.904-10.903c0-3.398-1.563-6.436-4.007-8.438l25.037-51.331c.763.17 1.553.266 2.366.266 2.92 0 5.57-1.16 7.529-3.036l16.716 11.1c-.438 1.18-.69 2.45-.69 3.781 0 6.013 4.892 10.905 10.904 10.905zm0-16.808a5.91 5.91 0 0 1 5.904 5.903c0 3.256-2.648 5.904-5.904 5.904s-5.904-2.648-5.904-5.904a5.91 5.91 0 0 1 5.904-5.903zM83.513 147.731a5.91 5.91 0 0 1-5.904-5.904c0-3.255 2.648-5.903 5.904-5.903s5.904 2.648 5.904 5.903a5.91 5.91 0 0 1-5.904 5.904zm34.38 29.305a5.91 5.91 0 0 1-5.904-5.903c0-3.256 2.648-5.904 5.904-5.904s5.904 2.648 5.904 5.904a5.91 5.91 0 0 1-5.904 5.903zm34.299-70.405a5.91 5.91 0 0 1-5.904-5.903c0-3.256 2.648-5.904 5.904-5.904s5.904 2.648 5.904 5.904a5.91 5.91 0 0 1-5.904 5.903zM87.896 50.594c-17.349 0-31.464 14.114-31.464 31.464s14.115 31.465 31.464 31.465c17.35 0 31.464-14.115 31.464-31.465s-14.115-31.464-31.464-31.464zm-2.5 57.807c-12.6-1.187-22.656-11.243-23.842-23.843h23.842v23.843zm1.167-28.843h-25.01c1.264-13.423 12.594-23.964 26.342-23.964 4.56 0 8.855 1.16 12.605 3.199L86.563 79.558zm3.833 28.843V82.819l14.251-21.232c5.925 4.857 9.713 12.229 9.713 20.47 0 13.75-10.541 25.08-23.964 26.344zM132.355 50.594a2.5 2.5 0 1 0 0 5h6.59a2.5 2.5 0 1 0 0-5h-6.59zM148.897 50.594a2.5 2.5 0 1 0 0 5h46.158a2.5 2.5 0 1 0 0-5h-46.158zM132.355 63.773a2.5 2.5 0 1 0 0 5h6.59a2.5 2.5 0 1 0 0-5h-6.59zM148.897 63.773a2.5 2.5 0 1 0 0 5h46.158a2.5 2.5 0 1 0 0-5h-46.158zM132.355 76.953a2.5 2.5 0 1 0 0 5h6.59a2.5 2.5 0 1 0 0-5h-6.59zM148.897 76.953a2.5 2.5 0 1 0 0 5h46.158a2.5 2.5 0 1 0 0-5h-46.158z" />
  <g>
    <path class="st6" d="M107.476 186.42a2.5 2.5 0 0 0-2.5 2.5v13.591a2.5 2.5 0 0 0 2.5 2.5h20.833a2.5 2.5 0 0 0 2.5-2.5V188.92a2.5 2.5 0 0 0-2.5-2.5h-20.833zm18.334 13.591h-15.833v-8.591h15.833v8.591zM141.855 138.763a2.5 2.5 0 0 0-2.5 2.5v61.248a2.5 2.5 0 0 0 2.5 2.5h20.833a2.5 2.5 0 0 0 2.5-2.5v-61.248a2.5 2.5 0 0 0-2.5-2.5h-20.833zm18.334 61.248h-15.833v-56.248h15.833v56.248zM73.097 164.321a2.5 2.5 0 0 0-2.5 2.5v35.689a2.5 2.5 0 0 0 2.5 2.5H93.93a2.5 2.5 0 0 0 2.5-2.5v-35.689a2.5 2.5 0 0 0-2.5-2.5H73.097zm18.333 35.69H75.597v-30.689H91.43v30.689zM176.235 138.763a2.5 2.5 0 0 0-2.5 2.5v61.248a2.5 2.5 0 0 0 2.5 2.5h20.833a2.5 2.5 0 0 0 2.5-2.5v-61.248a2.5 2.5 0 0 0-2.5-2.5h-20.833zm18.333 61.248h-15.833v-56.248h15.833v56.248z" />
    <path class="st2" d="M58.932 110.171a2.5 2.5 0 0 0-2.5 2.5v89.84a2.5 2.5 0 0 0 2.5 2.5h138.137a2.5 2.5 0 1 0 0-5H61.432v-87.34a2.5 2.5 0 0 0-2.5-2.5z" />
    <path class="st4" d="M160.634 99.198a2.501 2.501 0 0 0-2.765 4.166l20.401 13.547a2.498 2.498 0 0 0 3.465-.7 2.5 2.5 0 0 0-.7-3.466l-20.401-13.547zM146.297 103.194l-26.968 55.29a2.5 2.5 0 0 0 4.494 2.192l26.968-55.29a2.5 2.5 0 0 0-4.494-2.192zM88.002 141.653a2.499 2.499 0 0 0 .281 3.524l21.596 18.408a2.496 2.496 0 0 0 3.525-.28 2.499 2.499 0 0 0-.281-3.524l-21.596-18.408a2.5 2.5 0 0 0-3.525.28z" />
    <path class="st5" d="M160.634 99.198a2.498 2.498 0 0 0-3.466.7 2.5 2.5 0 0 0 .7 3.466l20.401 13.547a2.498 2.498 0 0 0 3.465-.7 2.5 2.5 0 0 0-.7-3.466l-20.4-13.547zm19.851 16.183a1 1 0 0 1-1.386.28l-20.401-13.547c-.223-.148-.374-.373-.427-.635s-.001-.529.147-.751a1 1 0 0 1 1.386-.281l20.401 13.547a.996.996 0 0 1 .427.635.993.993 0 0 1-.147.752zM148.545 101.789c-.926 0-1.815.516-2.247 1.405l-26.968 55.29a2.5 2.5 0 0 0 4.494 2.192l26.968-55.29a2.5 2.5 0 0 0-2.247-3.597zm.898 2.939-26.968 55.29a.995.995 0 0 1-1.337.461 1.002 1.002 0 0 1-.461-1.337l26.968-55.291a.994.994 0 0 1 1.337-.46 1 1 0 0 1 .461 1.337zM89.905 140.775a2.499 2.499 0 0 0-1.622 4.403l21.596 18.408a2.496 2.496 0 0 0 3.525-.28 2.499 2.499 0 0 0-.281-3.524l-21.596-18.408a2.487 2.487 0 0 0-1.622-.599zm22.357 21.558a1 1 0 0 1-1.41.112l-21.596-18.408a.992.992 0 0 1-.348-.682 1 1 0 0 1 1.646-.84l21.596 18.408c.419.358.469.99.112 1.41z" />
    <path class="st2" d="M72.609 137.827c0 6.013 4.892 10.904 10.904 10.904s10.904-4.892 10.904-10.904-4.892-10.903-10.904-10.903-10.904 4.891-10.904 10.903zm16.808 0c0 3.256-2.648 5.904-5.904 5.904s-5.904-2.648-5.904-5.904c0-3.255 2.648-5.903 5.904-5.903s5.904 2.648 5.904 5.903zM106.989 167.133c0 6.012 4.892 10.903 10.904 10.903s10.904-4.892 10.904-10.903c0-6.013-4.892-10.904-10.904-10.904s-10.904 4.891-10.904 10.904zm16.808 0c0 3.255-2.648 5.903-5.904 5.903s-5.904-2.648-5.904-5.903c0-3.256 2.648-5.904 5.904-5.904s5.904 2.648 5.904 5.904zM141.289 96.728c0 6.012 4.892 10.903 10.904 10.903s10.904-4.892 10.904-10.903c0-6.013-4.892-10.904-10.904-10.904s-10.904 4.891-10.904 10.904zm16.807 0c0 3.255-2.648 5.903-5.904 5.903s-5.904-2.648-5.904-5.903c0-3.256 2.648-5.904 5.904-5.904s5.904 2.648 5.904 5.904zM175.748 119.476c0 6.013 4.892 10.904 10.904 10.904s10.904-4.892 10.904-10.904-4.892-10.903-10.904-10.903-10.904 4.891-10.904 10.903zm16.808 0c0 3.256-2.648 5.904-5.904 5.904s-5.904-2.648-5.904-5.904c0-3.255 2.648-5.903 5.904-5.903s5.904 2.648 5.904 5.903z" />
    <g>
      <path class="st6" d="M87.896 46.594c-17.349 0-31.464 14.114-31.464 31.464s14.115 31.465 31.464 31.465c17.35 0 31.464-14.115 31.464-31.465s-14.115-31.464-31.464-31.464zm0 57.928c-14.592 0-26.464-11.872-26.464-26.465 0-14.592 11.872-26.464 26.464-26.464s26.464 11.872 26.464 26.464c0 14.593-11.872 26.465-26.464 26.465z" />
      <path class="st6" d="M101.649 53.081 86.563 75.558H58.932a2.5 2.5 0 1 0 0 5h28.964c.833 0 1.611-.415 2.076-1.106l15.83-23.583a2.5 2.5 0 0 0-4.153-2.788z" />
      <path class="st6" d="M85.396 78.058v28.924a2.5 2.5 0 1 0 5 0V78.058a2.5 2.5 0 1 0-5 0z" />
    </g>
    <g>
      <path class="st6" d="M132.355 46.594a2.5 2.5 0 1 0 0 5h6.59a2.5 2.5 0 1 0 0-5h-6.59zM148.897 46.594a2.5 2.5 0 1 0 0 5h46.158a2.5 2.5 0 1 0 0-5h-46.158zM132.355 59.773a2.5 2.5 0 1 0 0 5h6.59a2.5 2.5 0 1 0 0-5h-6.59zM148.897 59.773a2.5 2.5 0 1 0 0 5h46.158a2.5 2.5 0 1 0 0-5h-46.158z" />
      <g>
        <path class="st6" d="M132.355 72.953a2.5 2.5 0 1 0 0 5h6.59a2.5 2.5 0 1 0 0-5h-6.59zM148.897 72.953a2.5 2.5 0 1 0 0 5h46.158a2.5 2.5 0 1 0 0-5h-46.158z" />
      </g>
    </g>
    <g>
      <path class="st7" d="M125.81 189.92h-15.833a1.5 1.5 0 0 0-1.5 1.5v8.591a1.5 1.5 0 0 0 1.5 1.5h15.833a1.5 1.5 0 0 0 1.5-1.5v-8.591a1.5 1.5 0 0 0-1.5-1.5zm0 10.091h-15.833v-8.591h15.833v8.591z" />
      <path class="st7" d="M107.476 186.42a2.5 2.5 0 0 0-2.5 2.5v13.591a2.5 2.5 0 0 0 2.5 2.5h20.833a2.5 2.5 0 0 0 2.5-2.5V188.92a2.5 2.5 0 0 0-2.5-2.5h-20.833zm21.834 2.5v13.591c0 .552-.449 1-1 1h-20.833c-.551 0-1-.448-1-1V188.92c0-.552.449-1 1-1h20.833c.551 0 1 .448 1 1zM141.855 138.763a2.5 2.5 0 0 0-2.5 2.5v61.248a2.5 2.5 0 0 0 2.5 2.5h20.833a2.5 2.5 0 0 0 2.5-2.5v-61.248a2.5 2.5 0 0 0-2.5-2.5h-20.833zm21.834 2.5v61.248c0 .552-.449 1-1 1h-20.833c-.551 0-1-.448-1-1v-61.248c0-.552.449-1 1-1h20.833c.551 0 1 .448 1 1z" />
      <path class="st7" d="M160.189 142.263h-15.833a1.5 1.5 0 0 0-1.5 1.5v56.248a1.5 1.5 0 0 0 1.5 1.5h15.833a1.5 1.5 0 0 0 1.5-1.5v-56.248a1.5 1.5 0 0 0-1.5-1.5zm0 57.748h-15.833v-56.248h15.833v56.248zM73.097 164.321a2.5 2.5 0 0 0-2.5 2.5v35.689a2.5 2.5 0 0 0 2.5 2.5H93.93a2.5 2.5 0 0 0 2.5-2.5v-35.689a2.5 2.5 0 0 0-2.5-2.5H73.097zm21.833 2.5v35.689c0 .552-.449 1-1 1H73.097c-.551 0-1-.448-1-1v-35.689c0-.552.449-1 1-1H93.93c.552 0 1 .449 1 1z" />
      <path class="st7" d="M91.43 167.821H75.597a1.5 1.5 0 0 0-1.5 1.5v30.689a1.5 1.5 0 0 0 1.5 1.5H91.43a1.5 1.5 0 0 0 1.5-1.5v-30.689a1.5 1.5 0 0 0-1.5-1.5zm0 32.19H75.597v-30.689H91.43v30.689zM194.568 142.263h-15.833a1.5 1.5 0 0 0-1.5 1.5v56.248a1.5 1.5 0 0 0 1.5 1.5h15.833a1.5 1.5 0 0 0 1.5-1.5v-56.248a1.5 1.5 0 0 0-1.5-1.5zm0 57.748h-15.833v-56.248h15.833v56.248z" />
      <path class="st7" d="M176.235 138.763a2.5 2.5 0 0 0-2.5 2.5v61.248a2.5 2.5 0 0 0 2.5 2.5h20.833a2.5 2.5 0 0 0 2.5-2.5v-61.248a2.5 2.5 0 0 0-2.5-2.5h-20.833zm21.833 2.5v61.248c0 .552-.449 1-1 1h-20.833c-.551 0-1-.448-1-1v-61.248c0-.552.449-1 1-1h20.833a1 1 0 0 1 1 1zM85.396 79.058H61.553a1.5 1.5 0 0 0-1.493 1.64c1.256 13.343 11.853 23.94 25.195 25.196a1.5 1.5 0 0 0 1.641-1.493V80.558a1.5 1.5 0 0 0-1.5-1.5zm0 25.343c-12.6-1.187-22.656-11.243-23.842-23.843h23.842v23.843z" />
      <path class="st7" d="M87.896 46.594c-17.349 0-31.464 14.114-31.464 31.464s14.115 31.465 31.464 31.465c17.35 0 31.464-14.115 31.464-31.465s-14.115-31.464-31.464-31.464zm0 61.428c-16.522 0-29.964-13.442-29.964-29.965 0-16.522 13.442-29.964 29.964-29.964s29.964 13.442 29.964 29.964c0 16.523-13.442 29.965-29.964 29.965z" />
      <path class="st7" d="M105.598 56.427a1.5 1.5 0 0 0-2.196.324L89.15 77.983a1.499 1.499 0 0 0-.255.836v25.582a1.5 1.5 0 0 0 1.641 1.493c14.437-1.36 25.324-13.327 25.324-27.837 0-8.399-3.74-16.283-10.262-21.63zm-15.202 47.974V78.819l14.251-21.232c5.925 4.857 9.713 12.229 9.713 20.47 0 13.75-10.541 25.08-23.964 26.344zM101.957 54.435a1.5 1.5 0 0 0-.74-.96 27.964 27.964 0 0 0-13.322-3.382c-14.509 0-26.476 10.887-27.836 25.323a1.499 1.499 0 0 0 1.493 1.64h25.009c.5 0 .967-.249 1.245-.664l13.938-20.765c.237-.348.314-.782.213-1.192zM86.563 75.558h-25.01c1.264-13.423 12.594-23.964 26.342-23.964 4.56 0 8.855 1.16 12.605 3.199L86.563 75.558z" />
      <g>
        <path class="st7" d="M132.355 46.594a2.5 2.5 0 1 0 0 5h6.59a2.5 2.5 0 1 0 0-5h-6.59zm7.59 2.5c0 .552-.449 1-1 1h-6.59a1.001 1.001 0 0 1 0-2h6.59c.551 0 1 .448 1 1z" />
      </g>
      <g>
        <path class="st7" d="M148.897 46.594a2.5 2.5 0 1 0 0 5h46.158a2.5 2.5 0 1 0 0-5h-46.158zm47.159 2.5c0 .552-.449 1-1 1h-46.158a1.001 1.001 0 0 1 0-2h46.158c.551 0 1 .448 1 1z" />
      </g>
      <g>
        <path class="st7" d="M132.355 59.773a2.5 2.5 0 1 0 0 5h6.59a2.5 2.5 0 1 0 0-5h-6.59zm7.59 2.5c0 .552-.449 1-1 1h-6.59a1.001 1.001 0 0 1 0-2h6.59c.551 0 1 .449 1 1z" />
      </g>
      <g>
        <path class="st7" d="M148.897 59.773a2.5 2.5 0 1 0 0 5h46.158a2.5 2.5 0 1 0 0-5h-46.158zm47.159 2.5c0 .552-.449 1-1 1h-46.158a1.001 1.001 0 0 1 0-2h46.158c.551 0 1 .449 1 1z" />
      </g>
      <g>
        <path class="st7" d="M132.355 72.953a2.5 2.5 0 1 0 0 5h6.59a2.5 2.5 0 1 0 0-5h-6.59zm7.59 2.5c0 .552-.449 1-1 1h-6.59a1.001 1.001 0 0 1 0-2h6.59c.551 0 1 .449 1 1z" />
      </g>
      <g>
        <path class="st7" d="M148.897 72.953a2.5 2.5 0 1 0 0 5h46.158a2.5 2.5 0 1 0 0-5h-46.158zm47.159 2.5c0 .552-.449 1-1 1h-46.158a1.001 1.001 0 0 1 0-2h46.158c.551 0 1 .449 1 1z" />
      </g>
    </g>
    <g>
      <path class="st3" d="M58.932 110.171a2.5 2.5 0 0 0-2.5 2.5v89.84a2.5 2.5 0 0 0 2.5 2.5h138.137a2.5 2.5 0 1 0 0-5H61.432v-87.34a2.5 2.5 0 0 0-2.5-2.5zm138.136 91.34a1.001 1.001 0 0 1 0 2H58.932c-.551 0-1-.449-1-1v-89.84c0-.551.449-1 1-1s1 .449 1 1v87.34a1.5 1.5 0 0 0 1.5 1.5h135.636z" />
      <path class="st3" d="M76.109 137.827c0 4.083 3.321 7.404 7.404 7.404s7.404-3.322 7.404-7.404-3.321-7.403-7.404-7.403-7.404 3.321-7.404 7.403zm13.308 0c0 3.256-2.648 5.904-5.904 5.904s-5.904-2.648-5.904-5.904c0-3.255 2.648-5.903 5.904-5.903s5.904 2.648 5.904 5.903z" />
      <path class="st3" d="M72.609 137.827c0 6.013 4.892 10.904 10.904 10.904s10.904-4.892 10.904-10.904-4.892-10.903-10.904-10.903-10.904 4.891-10.904 10.903zm20.308 0c0 5.186-4.219 9.404-9.404 9.404s-9.404-4.219-9.404-9.404 4.219-9.403 9.404-9.403 9.404 4.218 9.404 9.403zM110.489 167.133c0 4.082 3.321 7.403 7.404 7.403s7.404-3.321 7.404-7.403c0-4.083-3.321-7.404-7.404-7.404s-7.404 3.321-7.404 7.404zm13.308 0c0 3.255-2.648 5.903-5.904 5.903s-5.904-2.648-5.904-5.903c0-3.256 2.648-5.904 5.904-5.904s5.904 2.648 5.904 5.904z" />
      <path class="st3" d="M106.989 167.133c0 6.012 4.892 10.903 10.904 10.903s10.904-4.892 10.904-10.903c0-6.013-4.892-10.904-10.904-10.904s-10.904 4.891-10.904 10.904zm20.308 0c0 5.185-4.219 9.403-9.404 9.403s-9.404-4.218-9.404-9.403c0-5.186 4.219-9.404 9.404-9.404s9.404 4.218 9.404 9.404z" />
      <g>
        <path class="st3" d="M144.789 96.728c0 4.082 3.321 7.403 7.404 7.403s7.404-3.321 7.404-7.403c0-4.083-3.321-7.404-7.404-7.404s-7.404 3.321-7.404 7.404zm13.307 0c0 3.255-2.648 5.903-5.904 5.903s-5.904-2.648-5.904-5.903c0-3.256 2.648-5.904 5.904-5.904s5.904 2.648 5.904 5.904z" />
        <path class="st3" d="M141.289 96.728c0 6.012 4.892 10.903 10.904 10.903s10.904-4.892 10.904-10.903c0-6.013-4.892-10.904-10.904-10.904s-10.904 4.891-10.904 10.904zm20.307 0c0 5.185-4.219 9.403-9.404 9.403s-9.404-4.218-9.404-9.403c0-5.186 4.219-9.404 9.404-9.404s9.404 4.218 9.404 9.404z" />
      </g>
      <g>
        <path class="st3" d="M175.748 119.476c0 6.013 4.892 10.904 10.904 10.904s10.904-4.892 10.904-10.904-4.892-10.903-10.904-10.903-10.904 4.891-10.904 10.903zm20.308 0c0 5.186-4.219 9.404-9.404 9.404s-9.404-4.219-9.404-9.404 4.219-9.403 9.404-9.403 9.404 4.218 9.404 9.403z" />
        <path class="st3" d="M179.248 119.476c0 4.083 3.321 7.404 7.404 7.404s7.404-3.322 7.404-7.404-3.321-7.403-7.404-7.403-7.404 3.32-7.404 7.403zm13.308 0c0 3.256-2.648 5.904-5.904 5.904s-5.904-2.648-5.904-5.904c0-3.255 2.648-5.903 5.904-5.903s5.904 2.648 5.904 5.903z" />
      </g>
    </g>
  </g>
</svg>