<svg version="1.1" id="Layer_1" xmlns="http://www.w3.org/2000/svg" x="0" y="0" viewBox="0 0 256 256" style="enable-background:new 0 0 256 256" xml:space="preserve">
  <style>
    .st0 {
      fill: #382b73
    }

    .st4 {
      fill: #d1d3d4
    }

    .st5 {
      fill: #1caee4
    }

    .st6 {
      fill: #009add
    }

    .st10 {
      fill: #f7cb15
    }

    .st11 {
      fill: #fff335
    }
  </style>
  <switch>
    <g>
      <circle class="st0" cx="128" cy="128" r="120" />
      <circle cx="128" cy="128" r="102.5" style="fill:#473080" />
      <path class="st0" d="M185.133 88.019h-27.139a29.862 29.862 0 0 0-.06-1.41c.043-.661.066-1.328.066-2 0-16.569-13.431-30-30-30s-30 13.431-30 30c0 .672.022 1.339.066 2-.031.467-.05.937-.06 1.41H70.867c-5.426 0-9.825 4.399-9.825 9.825v79.703c0 5.426 4.399 9.825 9.825 9.825h76.117l8.51 11.566c3.337 4.534 10.113 4.534 13.449 0l8.51-11.566h7.678c5.426 0 9.825-4.399 9.825-9.825V97.844c.002-5.426-4.397-9.825-9.823-9.825z" />
      <g>
        <path d="M185.133 88.914H70.867c-5.426 0-9.825 4.399-9.825 9.825v71.808c0 5.426 4.399 9.825 9.825 9.825h76.117l8.51 11.566c3.337 4.534 10.113 4.534 13.449 0l8.511-11.566h7.678c5.426 0 9.825-4.399 9.825-9.825V98.739c.001-5.426-4.398-9.825-9.824-9.825z" style="fill:#bcbec0" />
        <path d="M185.133 81.019H70.867c-5.426 0-9.825 4.399-9.825 9.825v71.808c0 5.426 4.399 9.825 9.825 9.825h78.082l10.076 14.051c1.568 2.186 4.82 2.186 6.387 0l10.077-14.051h9.643c5.426 0 9.825-4.399 9.825-9.825V90.844c.001-5.426-4.398-9.825-9.824-9.825z" style="fill:#fff" />
        <path class="st4" d="M105.409 130.268c0 5.96-4.831 10.791-10.791 10.791s-10.791-4.831-10.791-10.791 4.831-10.791 10.791-10.791 10.791 4.831 10.791 10.791z" />
        <path class="st5" d="M105.409 127.47c0 5.96-4.831 10.791-10.791 10.791s-10.791-4.831-10.791-10.791 4.831-10.791 10.791-10.791 10.791 4.831 10.791 10.791z" />
        <path class="st6" d="M94.618 134.648c-5.343 0-9.767-3.887-10.628-8.984-.1.589-.163 1.19-.163 1.807 0 5.96 4.832 10.791 10.791 10.791 5.96 0 10.791-4.831 10.791-10.791 0-.617-.064-1.218-.163-1.807-.861 5.097-5.285 8.984-10.628 8.984z" />
        <g>
          <path class="st4" d="M138.791 130.268c0 5.96-4.831 10.791-10.791 10.791s-10.791-4.831-10.791-10.791 4.831-10.791 10.791-10.791 10.791 4.831 10.791 10.791z" />
          <path class="st5" d="M138.791 127.47c0 5.96-4.831 10.791-10.791 10.791s-10.791-4.831-10.791-10.791 4.831-10.791 10.791-10.791 10.791 4.831 10.791 10.791z" />
          <path class="st6" d="M128 134.648c-5.343 0-9.767-3.887-10.628-8.984-.1.589-.163 1.19-.163 1.807 0 5.96 4.832 10.791 10.791 10.791 5.96 0 10.791-4.831 10.791-10.791 0-.617-.064-1.218-.163-1.807-.861 5.097-5.285 8.984-10.628 8.984z" />
        </g>
        <g>
          <path class="st4" d="M172.173 130.268c0 5.96-4.831 10.791-10.791 10.791s-10.791-4.831-10.791-10.791 4.831-10.791 10.791-10.791 10.791 4.831 10.791 10.791z" />
          <path class="st5" d="M172.173 127.47c0 5.96-4.831 10.791-10.791 10.791s-10.791-4.831-10.791-10.791 4.831-10.791 10.791-10.791 10.791 4.831 10.791 10.791z" />
          <path class="st6" d="M161.382 134.648c-5.343 0-9.767-3.887-10.628-8.984-.1.589-.163 1.19-.163 1.807 0 5.96 4.832 10.791 10.791 10.791 5.96 0 10.791-4.831 10.791-10.791 0-.617-.064-1.218-.163-1.807-.861 5.097-5.285 8.984-10.628 8.984z" />
        </g>
        <g>
          <circle cx="128" cy="81.609" r="30" style="fill:#e6e7e8" />
          <circle transform="rotate(-24.281 127.998 77.61)" cx="128" cy="77.61" style="fill:#ef5a9d" r="30" />
          <path d="M142.067 91.928a1.23 1.23 0 0 0-.169-.569l-.954-1.659a10.427 10.427 0 0 1-.114-.204l-.028-.051a12.885 12.885 0 0 1-.107-.202l-.019-.037-.086-.171-.031-.064a8.619 8.619 0 0 1-.093-.195l-.027-.058a10.58 10.58 0 0 1-.07-.155l-.03-.068a12.228 12.228 0 0 1-.849-6.936l.52-3.063c.676-3.987-.61-8.105-3.576-10.855a12.166 12.166 0 0 0-4.742-2.724 4.012 4.012 0 1 0-7.076 0 12.12 12.12 0 0 0-1.636.628c-4.949 2.326-7.602 7.804-6.61 13.182l.387 2.099a12.225 12.225 0 0 1-1.171 7.848l-.033.064c-.042.081-.086.161-.13.241l-1.33 2.396a1.359 1.359 0 0 0-.126.323 1.224 1.224 0 0 0 .07.791l.034.072a1.28 1.28 0 0 0 .289.375 1.253 1.253 0 0 0 .838.317h8.532c-.016.05-.031.101-.045.152a5.052 5.052 0 0 0-.042.158l-.027.12-.004.018a5.545 5.545 0 0 0-.026.137l-.004.026-.017.111-.005.038-.016.13-.001.006a3.167 3.167 0 0 0-.012.14l-.002.038-.005.104-.002.042-.002.14a4.482 4.482 0 0 0 6.806 3.833l.091-.057a4.513 4.513 0 0 0 1.831-2.338l.034-.105a4.493 4.493 0 0 0 .198-1.473l-.001-.042a3.452 3.452 0 0 0-.005-.104l-.002-.038a3.167 3.167 0 0 0-.012-.14l-.001-.006a5.13 5.13 0 0 0-.016-.13l-.005-.038-.017-.111-.004-.026-.026-.137-.004-.018-.027-.12a5.052 5.052 0 0 0-.038-.144l-.004-.014c-.014-.051-.03-.102-.045-.152h8.532a1.257 1.257 0 0 0 1.093-.631 1.231 1.231 0 0 0 .124-.294 1.253 1.253 0 0 0 .045-.4zm-13.913-30.274a1.37 1.37 0 1 1 0 2.74 1.37 1.37 0 0 1 0-2.74z" style="fill:#e43d91" />
          <path class="st10" d="m141.899 88.358-.954-1.659a12.231 12.231 0 0 1-1.455-8.14l.519-3.063c.676-3.987-.61-8.105-3.576-10.855a12.138 12.138 0 0 0-8.28-3.247c-1.85 0-3.604.412-5.174 1.15-4.949 2.326-7.602 7.804-6.61 13.182l.387 2.099c.515 2.79.043 5.673-1.334 8.153l-1.33 2.396a1.263 1.263 0 0 0 1.105 1.877h25.606a1.263 1.263 0 0 0 1.096-1.893z" />
          <path class="st11" d="m136.928 88.358-.613-1.659c-.909-2.462-1.24-5.34-.935-8.14l.334-3.063c.434-3.987-.392-8.105-2.297-10.855-1.396-2.015-3.265-3.247-5.319-3.247-1.188 0-2.315.412-3.324 1.15-3.179 2.326-4.883 7.804-4.246 13.182l.249 2.099c.33 2.79.028 5.673-.857 8.153l-.854 2.396c-.3.842.091 1.877.71 1.877h16.448c.624.001 1.015-1.051.704-1.893z" />
          <circle transform="rotate(-67.369 128 91.613)" class="st10" cx="128" cy="91.613" r="4.482" />
          <path d="M128 93.675a4.482 4.482 0 0 1-4.316-3.272 4.482 4.482 0 1 0 8.634 0A4.486 4.486 0 0 1 128 93.675z" style="fill:#e7ad27" />
          <path class="st11" d="M128.154 56.012a4.012 4.012 0 1 0 0 8.023 4.012 4.012 0 0 0 0-8.023zm0 5.383a1.37 1.37 0 1 1 0-2.74 1.37 1.37 0 0 1 0 2.74z" />
          <path class="st10" d="M128.154 57.253a2.771 2.771 0 1 0 .001 5.543 2.771 2.771 0 0 0-.001-5.543zm0 4.142a1.37 1.37 0 1 1 0-2.74 1.37 1.37 0 0 1 0 2.74zM115.422 85.978l-1.33 2.396a1.263 1.263 0 0 0 1.105 1.877h25.606c.972 0 1.58-1.051 1.096-1.894l-.954-1.659a12.344 12.344 0 0 1-.612-1.216h-24.651c-.083.168-.169.333-.26.496z" />
          <path d="m136.928 88.358-.613-1.659a15.695 15.695 0 0 1-.393-1.216h-15.834c-.053.167-.109.332-.167.495l-.854 2.396c-.3.842.091 1.877.71 1.877h16.448c.623.001 1.014-1.051.703-1.893z" style="fill:#fede3a" />
        </g>
      </g>
    </g>
  </switch>
</svg>