<svg>
	<circle cx="64" cy="34.169" r="10.258" fill="#f89cbb"/>
	<path d="M64 44.427a11.465 11.465 0 0 0-11.465 11.465v25.922h22.93V55.892A11.465 11.465 0 0 0 64 44.427z" fill="#5f09b0"/>
	<circle cx="80.939" cy="57.074" r="10.258" fill="#f89cbb"/>
	<path d="M80.939 67.332A11.464 11.464 0 0 0 69.475 78.8v17.5H92.4V78.8a11.465 11.465 0 0 0-11.461-11.468z" fill="#176905"/>
	<circle cx="47.061" cy="57.074" r="10.258" fill="#f89cbb"/>
	<path d="M47.061 67.332A11.465 11.465 0 0 0 35.6 78.8v17.5h22.925V78.8a11.464 11.464 0 0 0-11.464-11.468z" fill="#d60f19"/>
	<circle cx="64" cy="64.867" r="10.258" fill="#f89cbb"/>
	<path d="M64 75.125A11.465 11.465 0 0 0 52.535 86.59v17.5h22.93v-17.5A11.465 11.465 0 0 0 64 75.125z" fill="#3449eb"/>
</svg>