<svg version="1.1" id="Layer_1" xmlns="http://www.w3.org/2000/svg" x="0" y="0" viewBox="0 0 256 256" style="enable-background:new 0 0 256 256" xml:space="preserve">
  <style>
    .st0 {
      fill: #3a312a
    }

    .st18 {
      fill: #d5dc57
    }

    .st39 {
      fill: #f4e0c4
    }
  </style>
  <path class="st18" d="M226.228 26.227c-.974 11.564-13.024 13.389-13.024 13.389 10.347.487 12.925 14.059 12.925 14.059.221-9.677 13.321-14.202 13.321-14.202-9.814-.587-13.222-13.246-13.222-13.246z" />
  <path class="st0" d="M239.54 37.976c-8.605-.514-11.832-12.024-11.864-12.141a1.5 1.5 0 0 0-2.942.265c-.86 10.215-11.313 11.964-11.754 12.033a1.5 1.5 0 0 0 .155 2.981c9.028.425 11.498 12.718 11.523 12.842a1.5 1.5 0 0 0 2.973-.247c.195-8.508 12.192-12.777 12.313-12.819a1.501 1.501 0 0 0 .994-1.622 1.506 1.506 0 0 0-1.398-1.292zm-13.566 10.346c-1.356-3.131-3.709-6.908-7.587-8.877 2.931-1.405 6.409-3.913 8.202-8.272 1.551 3.071 4.2 6.88 8.335 8.722-3.008 1.64-6.924 4.406-8.95 8.427z" />
  <path class="st18" d="M204.529 43.207c-.689 8.179-9.212 9.471-9.212 9.471 7.318.344 9.142 9.944 9.142 9.944.156-6.844 9.422-10.045 9.422-10.045-6.941-.416-9.352-9.37-9.352-9.37z" />
  <path class="st0" d="M213.971 51.079c-5.766-.345-7.972-8.185-7.994-8.264a1.5 1.5 0 0 0-2.942.266c-.579 6.87-7.647 8.066-7.942 8.113a1.5 1.5 0 0 0 .155 2.982c6.035.284 7.723 8.644 7.739 8.726a1.5 1.5 0 0 0 2.974-.246c.13-5.709 8.332-8.634 8.413-8.662a1.499 1.499 0 0 0-.403-2.915zm-9.585 6.795c-.924-1.885-2.34-3.947-4.447-5.28 1.855-1.041 3.697-2.629 4.871-4.916 1.057 1.874 2.654 3.955 4.941 5.224-1.85 1.1-3.989 2.741-5.365 4.972z" />
  <path class="st18" d="M204.529 16.55c-.689 8.179-9.212 9.471-9.212 9.471 7.318.344 9.142 9.944 9.142 9.944.156-6.845 9.422-10.045 9.422-10.045-6.941-.416-9.352-9.37-9.352-9.37z" />
  <path class="st0" d="M213.971 24.422c-5.766-.345-7.973-8.186-7.994-8.265a1.5 1.5 0 0 0-2.942.266c-.579 6.871-7.647 8.067-7.942 8.114a1.5 1.5 0 0 0 .155 2.981c6.035.284 7.723 8.644 7.739 8.726a1.5 1.5 0 0 0 2.973-.246c.13-5.709 8.331-8.634 8.413-8.662a1.5 1.5 0 0 0-.402-2.914zm-9.585 6.795c-.924-1.885-2.34-3.947-4.447-5.28 1.855-1.041 3.697-2.63 4.871-4.916 1.057 1.873 2.654 3.954 4.941 5.223-1.85 1.101-3.989 2.74-5.365 4.973z" />
  <path d="M177.245 36.967c-.109-11.314-9.347-20.431-20.71-20.436l-119.253-.062c-11.448-.006-20.732 9.234-20.732 20.635v158.77c0 11.409 9.249 20.657 20.657 20.657h119.685c11.409 0 20.657-9.249 20.657-20.657V68.537l-.304-31.57z" style="fill:#eb6e7a" />
  <path class="st0" d="M178.745 36.953c-.116-12.081-10.079-21.915-22.208-21.922l-119.254-.062h-.012c-5.933 0-11.51 2.3-15.707 6.477-4.201 4.181-6.515 9.742-6.515 15.658v38.427a1.5 1.5 0 1 0 3 0V37.103c0-5.112 2-9.917 5.631-13.531 3.631-3.614 8.456-5.603 13.59-5.603h.01l119.254.062c10.492.005 19.11 8.507 19.21 18.951l.305 31.555v127.336c0 10.564-8.594 19.157-19.157 19.157H37.207c-10.563 0-19.157-8.594-19.157-19.157V89.531a1.5 1.5 0 1 0-3 0v106.343c0 12.218 9.94 22.157 22.157 22.157h119.686c12.218 0 22.157-9.939 22.157-22.157V68.522l-.305-31.569z" />
  <path class="st39" d="M147.5 39.5H59.35c-11.51 0-20.85 9.34-20.85 20.85v158.3c0 11.51 9.34 20.85 20.85 20.85h119.3c11.51 0 20.85-9.34 20.85-20.85V91.53l-52-52.03z" />
  <path class="st0" d="m200.561 90.469-52-52.03A1.5 1.5 0 0 0 147.5 38H59.35C47.026 38 37 48.026 37 60.35v158.3C37 230.974 47.026 241 59.35 241h32.299a1.5 1.5 0 1 0 0-3H59.35C48.68 238 40 229.32 40 218.65V60.35C40 49.68 48.68 41 59.35 41h87.528L198 92.151V218.65c0 10.67-8.68 19.35-19.35 19.35h-73.298a1.5 1.5 0 1 0 0 3h73.298c12.324 0 22.35-10.026 22.35-22.35V91.53a1.5 1.5 0 0 0-.439-1.061z" />
  <path class="st0" d="M170.55 76.5h-102a1.5 1.5 0 1 0 0 3h102a1.5 1.5 0 1 0 0-3zM170.55 108.135h-102a1.5 1.5 0 1 0 0 3h102a1.5 1.5 0 1 0 0-3zM170.55 139.769h-102a1.5 1.5 0 1 0 0 3h102a1.5 1.5 0 1 0 0-3zM170.55 171.404h-102a1.5 1.5 0 1 0 0 3h102a1.5 1.5 0 1 0 0-3zM170.5 203h-102a1.5 1.5 0 1 0 0 3h102a1.5 1.5 0 1 0 0-3z" />
  <circle transform="rotate(-45.001 194.695 194.814)" cx="194.696" cy="194.811" style="fill-rule:evenodd;clip-rule:evenodd;fill:#d4da55" r="44.72" />
  <path class="st0" d="M194.696 148.591c-25.486 0-46.22 20.734-46.22 46.22 0 25.486 20.734 46.22 46.22 46.22 25.486 0 46.22-20.734 46.22-46.22.001-25.486-20.734-46.22-46.22-46.22zm0 89.44c-23.832 0-43.22-19.388-43.22-43.22 0-23.831 19.388-43.22 43.22-43.22 23.831 0 43.22 19.389 43.22 43.22.001 23.832-19.388 43.22-43.22 43.22z" />
  <path d="M214.438 172.456c-6.179-2.129-15.547-.077-19.555 5.592-4.008-5.669-13.377-7.721-19.555-5.592-7.861 2.709-12.051 10.999-11.277 19.016.86 8.911 7.254 17.79 14.212 24.697l2.87 2.715a83.454 83.454 0 0 0 5.572 4.609c2.117 1.598 5.269 4.304 8.122 4.365l.006.002v.001c.003.001.006.003.01.003h.003l.037-.002.037.002h.003c.004 0 .007-.002.01-.003v-.001a.014.014 0 0 1 .006-.002c2.853-.06 6.006-2.766 8.122-4.365 9.276-7.004 21.443-19.482 22.653-32.02.775-8.018-3.414-16.308-11.276-19.017z" style="fill-rule:evenodd;clip-rule:evenodd;fill:#eb6e7a" />
  <path class="st0" d="M214.927 171.038c-6.038-2.082-15.062-.622-20.044 4.652-4.981-5.274-14.006-6.732-20.044-4.652-8.13 2.801-13.18 11.264-12.281 20.578.977 10.125 8.505 19.519 14.674 25.642l2.87 2.715a85.129 85.129 0 0 0 5.699 4.716l.745.571c2.165 1.671 5.116 3.947 8.114 4.091.061.007.123.011.186.011h.079c.055 0 .11-.003.165-.009 2.985-.121 5.956-2.414 8.134-4.094l.743-.569c5.073-3.831 21.742-17.538 23.242-33.074.898-9.314-4.152-17.777-12.282-20.578zm9.295 20.29c-1.098 11.378-12.118 23.457-22.063 30.968-.244.184-.5.381-.768.588-1.876 1.448-4.445 3.43-6.451 3.473-.027.001-.054.002-.081.001-2.037-.043-4.605-2.025-6.48-3.472a81.517 81.517 0 0 0-.77-.59 82.114 82.114 0 0 1-5.458-4.514l-2.831-2.678c-5.792-5.75-12.883-14.542-13.775-23.776-.753-7.803 3.567-15.143 10.273-17.454 5.418-1.868 14.201-.108 17.842 5.041.562.796 1.888.796 2.449 0 3.641-5.148 12.422-6.907 17.842-5.041 6.704 2.311 11.025 9.651 10.271 17.454z" />
  <path class="st39" d="M147.5 39.5v33.8c0 10.14 8.22 18.36 18.36 18.36h33.64v-.13l-52-52.03z" />
  <path class="st0" d="m200.561 90.469-52-52.03A1.499 1.499 0 0 0 146 39.5v33.8c0 10.951 8.909 19.86 19.86 19.86h33.64a1.5 1.5 0 0 0 1.5-1.5v-.13a1.5 1.5 0 0 0-.439-1.061zm-34.701-.309c-9.296 0-16.86-7.563-16.86-16.86V43.123l47.01 47.038h-30.15z" />
  <path d="M180 93.16v57.83c4.62-1.56 9.56-2.4 14.7-2.4 1.11 0 2.21.05 3.3.13V93.16h-18z" style="fill:#decaad" />
</svg>