<svg xmlns="http://www.w3.org/2000/svg" xml:space="preserve" width="2048" height="2048" style="shape-rendering:geometricPrecision;text-rendering:geometricPrecision;image-rendering:optimizeQuality;fill-rule:evenodd;clip-rule:evenodd">
  <defs>
    <style>
      .fil0 {
        fill: none
      }

      .fil4 {
        fill: #0097a7;
        fill-rule: nonzero
      }
    </style>
  </defs>
  <g id="Layer_x0020_1">
    <g id="_276858776">
      <path id="_276860096" class="fil0" d="M0 0h2048v2048H0z" />
      <path id="_276858368" class="fil0" d="M255.999 255.999h1536v1536h-1536z" />
    </g>
    <g id="_393202520">
      <path id="_276857888" d="M1558.18 1408.83c-12.91-30.873-43.974-50.65-73.64-62.824l-200.466-92.302-122.337-107.235-269.07 7.3-128.72 99.935-200.487 92.302c-29.666 12.174-59.002 31.429-73.64 62.824 0 0-217.916 372.213-99.724 372.213h1267.81c118.192 0-99.723-372.213-99.723-372.213z" style="fill:#039be5;fill-rule:nonzero" />
      <path id="_276859712" d="M1023.99 318.999c-257.895 0-363.775 133.024-361.505 355.343 3.462 320.352 156.476 511.395 361.505 511.395 205.042 0 358.056-191.043 361.538-511.395 2.23-222.299-103.649-355.343-361.538-355.343z" style="fill:#ffd180;fill-rule:nonzero" />
      <path id="_276864776" d="M1023.99 318.999c-214.551 0-323.875 81.22-353.261 221.425 50.375 40.519 124.289 66.108 206.679 66.108 123.545 0 228.047-57.523 262.668-136.679 50.388 43.932 127.412 72.029 213.747 72.029 7.95 0 15.815-.252 23.595-.718C1348.236 400.514 1238.91 319 1023.99 319z" style="fill:#424242;fill-rule:nonzero" />
      <path id="_276865184" class="fil4" d="M647.464 554.863c-5.28-.45-7.662-.758-10.063-.925-12.14-.843-25.183 1.936-36.861 8.3-12.709 6.925-24.056 18.117-31.609 33.63-5.452 11.199-8.87 24.363-9.406 39.473l-.082 1.376v166.818h.082c.012 20.33 6.137 38.661 16.02 51.834 9.655 12.867 22.887 20.84 37.394 20.84h34.525V554.862z" />
      <path id="_276860504" d="m1401.46 554.785-1.9.162c-15.342-83.684-52.011-150.934-107.934-199.693-62.404-54.405-148.185-84.79-254.333-88.187l-.729-.115h-6.068l-.728.115c-1.925.062-3.842.137-5.754.217-1.913-.08-3.83-.155-5.755-.217l-.727-.115h-6.069l-.727.115c-106.15 3.397-191.93 33.782-254.334 88.187-55.902 48.74-92.565 115.96-107.917 199.6l-.018.093-.998-.084v321.345h3.295c14.509 0 27.742-7.974 37.392-20.842 9.935-13.248 16.087-31.584 16.087-51.831V636.717c0-26.464-8.912-40.45-6.291-54.232 11.008-77.36 42.136-138.508 91.285-181.36 53.214-46.394 128.139-72.415 222.227-75.548v.09h6.068v-.09c2.174.075 4.331.165 6.482.263 2.152-.098 4.31-.188 6.482-.263v.09h6.069v-.09c94.089 3.133 169.012 29.154 222.227 75.547 49.149 42.853 80.277 104 91.286 181.361 2.62 13.783-6.293 27.768-6.293 54.232v166.818c0 20.248 6.153 38.583 16.088 51.831 9.65 12.868 22.884 20.842 37.391 20.842h4.197V554.785z" style="fill:#006064;fill-rule:nonzero" />
      <path id="_393202616" class="fil4" d="M1410.62 553.939c-2.088.145-4.165.398-8.145.757l-1.017.09v321.423h33.624c14.507 0 27.74-7.973 37.396-20.84 9.882-13.172 16.006-31.503 16.018-51.833h.082V636.718l-.082-1.376c-.536-15.11-3.953-28.275-9.406-39.474-7.553-15.513-18.9-26.705-31.608-33.63-11.678-6.364-24.723-9.143-36.862-8.3z" />
    </g>
  </g>
</svg>