<svg xmlns="http://www.w3.org/2000/svg" viewBox="0 0 1000 1000" xml:space="preserve">
	<switch>
		<g>
            <circle fill="#13333D" cx="500" cy="500" r="398"/>
            <circle fill="#0F3D4E" cx="500" cy="500" r="344.3"/>
            <path fill="#13333D" d="m789.5 614.3-23.9-195.9c0-.7 0-1.5-.1-2.2v-.5c-.1-.7-.1-1.4-.3-2.1 0-.1 0-.2-.1-.3-.1-.6-.2-1.3-.4-1.9
            0-.1-.1-.2-.1-.4-.2-.7-.4-1.3-.6-2 0-.1-.1-.2-.1-.4-.2-.6-.5-1.3-.7-1.9v-.1c-.3-.7-.6-1.3-.9-1.9-.1-.1-.1-.2-.2-.3-.3-.6-.7-1.3-1-1
            .9l-1.2-1.8c0-.1-.1-.1-.1-.2-.4-.6-.9-1.2-1.3-1.7l-.1-.1c-1-1.1-2-2.2-3.1-3.2l-.1-.1c-1.1-1-2.3-1.9-3.6-2.7-4.7-3-10.2-4.7-16.1-4.
            7H578c-5.9 0-11.4 1.7-16.1 4.7-1.3.8-2.5 1.7-3.6 2.7l-.1.1c-1.1 1-2.2 2-3.1 3.2l-.1.1c-.5.6-.9 1.1-1.3 1.7 0 .1-.1.1-.1.2l-1.2 
            1.8c-.4.6-.7 1.2-1 1.9-.1.1-.1.2-.2.3-.3.6-.6 1.3-.9 1.9v.1c-.3.6-.5 1.3-.7 1.9 0 .1-.1.2-.1.4-.2.7-.4 1.3-.6 2 0 .1-.1.2-.1.4-.1.6-.3 
            1.2-.4 1.9 0 .1 0 .2-.1.3l-.3 2.1v.5c-.1.7-.1 1.5-.1 2.2l-3.6 29.6h-88.6l-3.6-29.6c0-.7 0-1.5-.1-2.2v-.5c-.1-.7-.1-1.4-.3-2.1 0-.1 0-.2-.1-.
            3-.1-.6-.2-1.3-.4-1.9 0-.1-.1-.2-.1-.4-.2-.7-.4-1.3-.6-2 0-.1-.1-.2-.1-.4-.2-.6-.5-1.3-.7-1.9v-.1c-.3-.7-.6-1.3-.9-1.9-.1-.1-.1-.2-.2-.3-.
            3-.6-.7-1.3-1-1.9l-1.2-1.8c0-.1-.1-.1-.1-.2-.4-.6-.9-1.2-1.3-1.7l-.1-.1c-1-1.1-2-2.2-3.1-3.2l-.1-.1c-1.1-1-2.3-1.9-3.6-2.7-4.7-3-10.2-4.
            7-16.1-4.7H264.5c-5.9 0-11.4 1.7-16.1 4.7-1.3.8-2.5 1.7-3.6 2.7l-.1.1c-1.1 1-2.2 2-3.1 3.2l-.1.1c-.5.6-.9 1.1-1.3 1.7 0 .1-.1.1-.1.2l-1.2 
            1.8c-.4.6-.7 1.2-1 1.9-.1.1-.1.2-.2.3-.3.6-.6 1.3-.9 1.9v.1c-.3.6-.5 1.3-.7 1.9 0 .1-.1.2-.1.4-.2.7-.4 1.3-.6 2 0 .1-.1.2-.1.4-.1.6-.3 
            1.2-.4 1.9 0 .1 0 .2-.1.3l-.3 2.1v.5c-.1.7-.1 1.5-.1 2.2l-23.9 195.9c-.6 2.3-.9 4.7-.9 7.2 0 16.6 13.5 30.1 30.1 30.1h206.9c16.6 0 
            30.1-13.5 30.1-30.1 0-2.5-.3-4.9-.9-7.2l-12-98.5-2.4-20h76.9l-.9 7.3L524 614.3c-.6 2.3-.9 4.7-.9 7.2 0 16.6 13.5 30.1 30.1 30.1h206.9c16.6
            0 30.1-13.5 30.1-30.1.1-2.4-.2-4.8-.7-7.2z"/>
            <g>
                <path fill="#36A9E1" d="M422 428.6H264.5c-16.6 0-30.1-13.5-30.1-30.1s13.5-30.1 30.1-30.1H422c16.6 0 30.1 13.5 30.1 30.1s-13.5 30.1-30.1 30.1z"/>

                <path fill="#36A9E1" d="m452.1 398.4 24.8 203.2H209.7l24.7-203.2z"/>
                <g fill="#0091C5">
                    <path d="M254.6 373.6c0-1.2 0-2.4.1-3.6-11.8 4.1-20.3 15.3-20.3 28.5l-24.7 203.1H237l17.6-228zM432 373.6l17.6 228h27.3l-24.7-203.1c0-13.2-8.5-24.4-20.3-28.5
                    0 1.1.1 2.3.1 3.6z"/>
                </g>
                <path fill="#2C3088" d="M446.7 631.7H239.8c-16.6 0-30.1-13.5-30.1-30.1s13.5-30.1 30.1-30.1h206.9c16.6 0 30.1 13.5 30.1 30.1.1 16.6-13.4 30.1-30.1 30.1z"/>
                <path fill="#413E91" d="M445 620.6H241.5c-10.5 0-19-8.5-19-19s8.5-19 19-19H445c10.5 0 19 8.5 19 19 .1 10.5-8.5 19-19 19z"/>
                <path fill="#0091C5" d="M445 613.1H241.5c-9.2 0-16.9-6.6-18.7-15.3-.2 1.2-.4 2.4-.4 3.7 0 10.5 8.5 19 19 19H445c10.5 0 19-8.5 19-19 0-1.3-.1-2.5-.4-3.7-1.6 
                8.8-9.3 15.3-18.6 15.3z"/>
                <path fill="#FFF" d="M414.2 557.8c-8.3 0-15.1-5.6-15.1-12.6s6.8-12.6 15.1-12.6 15.1 5.6 15.1 12.6-6.7 12.6-15.1 12.6z"/>
                <path fill="#36A9E1" d="M414.2 552.6c-4.2 0-7.6-2.8-7.6-6.3s3.4-6.3 7.6-6.3 7.6 2.8 7.6 6.3c.1 3.4-3.4 6.3-7.6 6.3z"/>
                <path fill="#DADADA" d="M414.2 536.4c7.6 0 13.9 4.7 14.9 10.7.1-.6.2-1.2.2-1.9 0-6.9-6.8-12.6-15.1-12.6s-15.1 5.6-15.1 12.6c0 .6.1 1.3.2 1.9 1.1-6.1
                7.3-10.7 14.9-10.7z"/>
                <g>
                    <path fill="#A44995" d="M735.5 428.6H578c-16.6 0-30.1-13.5-30.1-30.1s13.5-30.1 30.1-30.1h157.4c16.6 0 30.1 13.5 30.1 30.1.1 16.6-13.4 30.1-30 30.1z"/>
                    <path fill="#A44995" d="m765.6 398.4 24.7 203.2H523.1l24.8-203.2z"/>
                    <g fill="#952584">
                    <path d="M568 373.6c0-1.2 0-2.4.1-3.6-11.8 4.1-20.3 15.3-20.3 28.5l-24.7 203.1h27.3l17.6-228zM745.4 373.6l17.6 228h27.3l-24.7-203.1c0-13.2-8.5-24.4-20.3-
                    28.5.1 1.1.1 2.3.1 3.6z"/>
                    </g>
                    <path fill="#952584" d="M760.2 631.7H553.3c-16.6 0-30.1-13.5-30.1-30.1s13.5-30.1 30.1-30.1h206.9c16.6 0 30.1 13.5 30.1 30.1s-13.5 30.1-30.1 30.1z"/>
                    <path fill="#0091C5" d="M758.5 620.6H555c-10.5 0-19-8.5-19-19s8.5-19 19-19h203.6c10.5 0 19 8.5 19 19-.1 10.5-8.6 19-19.1 19z"/>
                    <path fill="#A44995" d="M758.5 613.1H555c-9.2 0-16.9-6.6-18.7-15.3-.2 1.2-.4 2.4-.4 3.7 0 10.5 8.5 19 19 19h203.6c10.5 0 19-8.5 19-19 0-1.3-.1-2.5-.
                    4-3.7-1.7 8.8-9.3 15.3-18.6 15.3z"/>
                    <path fill="#FFF" d="M727.7 557.8c-8.3 0-15.1-5.6-15.1-12.6s6.8-12.6 15.1-12.6 15.1 5.6 15.1 12.6-6.7 12.6-15.1 12.6z"/>
                    <path fill="#413E91" d="M727.7 552.6c-4.2 0-7.6-2.8-7.6-6.3s3.4-6.3 7.6-6.3c4.2 0 7.6 2.8 7.6 6.3.1 3.4-3.4 6.3-7.6 6.3z"/>
                    <path fill="#DADADA" d="M727.7 536.4c7.6 0 13.9 4.7 14.9 10.7.1-.6.2-1.2.2-1.9 0-6.9-6.8-12.6-15.1-12.6s-15.1 5.6-15.1 12.6c0 .6.1 1.3.2 1.9 
                    1.1-6.1 7.3-10.7 14.9-10.7z"/>
                </g>
                <g>
                    <path fill="#0091C5" d="M458.1 448h-46.2V412.6l-77.6 53.7v11.3l77.6 53.7V495.9H464z"/>
                    <path fill="#952584" d="m588.1 531.3 77.6-53.7v-11.3l-77.6-53.7V448h-46.2l-5.9 47.9h52.1V520z"/>
                </g>
                <g>
                    <path fill="#DADADA" d="M405.1 439.3H595v36.6H405.1z"/>
                    <path fill="#FFF" d="M405.1 428H595v36.6H405.1z"/>
                    <g fill="#DADADA">
                        <path d="M588.1 511.3V403.9l77.6 42.4v11.3zM411.9 403.9v107.4l-77.6-53.7v-11.3z"/>
                    </g>
                    <g fill="#FFF">
                        <path d="M588.1 500V392.6l77.6 53.7zM411.9 392.6V500l-77.6-53.7z"/>
                    </g>
                </g>
            </g>
		</g>
	</switch>
</svg>
 